<svg xmlns="http://www.w3.org/2000/svg" version="1.1" width="48" height="48" viewBox="0 0 300 300" fill="none" stroke="currentColor" strokeWidth="1.6" strokeLinecap="round" class="my-path" preserveAspectRatio="xMidYMid meet">
  <g transform="translate(0 300) scale(0.1 -0.1)">
    <path d="M715 2984 c-234 -49 -426 -173 -555 -360 -90 -130 -150 -297 -150 -413 1 -72 11 -54 45 73 48 186 99 285 209 403 125 134 254 207 447 253 52 13 105 29 119 36 23 12 20 13 -35 12 -33 0 -69 -2 -80 -4z" fill="none" stroke="black" strokeWidth="1.6" strokeLinecap="round" class="my-path" />
    <path d="M2170 2976 c14 -7 67 -23 118 -35 185 -44 316 -116 433 -238 116 -120 172 -225 220 -412 38 -146 48 -165 49 -85 1 170 -111 406 -258 546 -150 143 -363 239 -526 238 -57 -1 -59 -2 -36 -14z" fill="none" stroke="black" strokeWidth="1.6" strokeLinecap="round" class="my-path"/>
    <path d="M784 2740 c-192 -29 -376 -164 -463 -340 -70 -144 -71 -154 -71 -898 1 -748 2 -762 71 -902 82 -165 253 -297 434 -335 103 -22 1387 -22 1490 0 183 38 355 172 433 336 69 145 67 117 67 904 0 658 -1 715 -18 775 -59 209 -222 375 -437 446 -51 17 -108 19 -755 20 -385 1 -723 -2 -751 -6z m1451 -45 c167 -35 323 -149 397 -291 76 -146 73 -105 73 -904 0 -666 -1 -719 -18 -775 -63 -204 -208 -349 -412 -412 -56 -17 -109 -18 -775 -18 -799 0 -758 -3 -904 73 -142 74 -256 230 -291 397 -22 103 -22 1367 0 1470 48 228 229 411 455 459 98 22 1375 22 1475 1z" fill="none" stroke="curreblackntColor" strokeWidth="1.6" strokeLinecap="round" class="my-path"/>
    <path d="M1400 2137 l0 -104 98 -14 97 -14 3 -415 c2 -414 2 -415 -20 -460 -74 -145 -286 -124 -333 34 -8 27 -15 62 -15 78 l0 28 -165 0 -165 0 0 -37 c0 -21 7 -66 15 -101 54 -229 218 -351 494 -369 225 -14 399 64 479 214 56 106 56 105 61 583 l6 445 73 14 72 13 0 104 0 104 -350 0 -350 0 0 -103z m648 51 c16 -16 15 -103 0 -116 -7 -5 -31 -15 -52 -21 -21 -5 -49 -20 -62 -32 l-24 -22 0 -411 c0 -443 -4 -486 -54 -584 -70 -138 -245 -215 -451 -198 -264 22 -415 139 -454 351 -6 33 -7 63 -3 67 5 5 60 7 122 6 l114 -3 22 -64 c27 -79 50 -110 101 -139 52 -29 117 -37 173 -22 57 15 130 88 148 146 9 30 12 155 12 447 l0 405 -30 25 c-20 17 -48 28 -85 32 -31 4 -63 14 -71 22 -17 17 -19 94 -2 111 17 17 579 17 596 0z" fill="none" stroke="black" strokeWidth="1.6" strokeLinecap="round" class="my-path"/>
    <path d="M2968 805 c-9 -27 -22 -75 -28 -105 -46 -205 -177 -398 -350 -514 -96 -64 -157 -91 -296 -127 -150 -39 -167 -48 -88 -49 224 -1 494 159 645 382 84 123 143 297 137 405 l-3 58 -17 -50z" fill="none" stroke="black" strokeWidth="1.6" strokeLinecap="round" class="my-path"/>
    <path d="M10 789 c0 -67 31 -189 70 -275 124 -274 414 -484 690 -500 106 -7 92 5 -49 41 -189 48 -296 103 -414 214 -130 122 -201 249 -253 448 -33 126 -43 144 -44 72z" fill="none" stroke="black" strokeWidth="1.6" strokeLinecap="round" class="my-path"/>
  </g>
</svg>
